PathFileType	4	(X/Y/Z)	34_1_tpose_p1_0-195_filt_butterworth.trc
DataRate	CameraRate	NumFrames	NumMarkers	Units	OrigDataRate	OrigDataStartFrame	OrigNumFrames
60.0	60.0	5	27	m	60.0	170	195
Frame#	Time	RHip			RKnee			RAnkle			RBigToe			RSmallToe			RHeel			LHip			LKnee			LAnkle			LBigToe			LSmallToe			LHeel			Neck			Head			Nose			RShoulder			RElbow			RWrist			RThumb			RIndex			RPinky			LShoulder			LElbow			LWrist			LThumb			LIndex			LPinky			
		X1	Y1	Z1	X2	Y2	Z2	X3	Y3	Z3	X4	Y4	Z4	X5	Y5	Z5	X6	Y6	Z6	X7	Y7	Z7	X8	Y8	Z8	X9	Y9	Z9	X10	Y10	Z10	X11	Y11	Z11	X12	Y12	Z12	X13	Y13	Z13	X14	Y14	Z14	X15	Y15	Z15	X16	Y16	Z16	X17	Y17	Z17	X18	Y18	Z18	X19	Y19	Z19	X20	Y20	Z20	X21	Y21	Z21	X22	Y22	Z22	X23	Y23	Z23	X24	Y24	Z24	X25	Y25	Z25	X26	Y26	Z26	X27	Y27	Z27	
170	2.833333333333333	0.4139273539860257	0.4620260815030788	0.9438988661608753	0.4102946414252591	0.6415187650947607	1.3753342630121317	0.40111265059242407	0.7561503555200527	1.7405384587340094	0.35259982283496494	0.6090329691126993	1.8013238923832553	0.41884350715267216	0.6013759895932538	1.7904899818792968	0.370150293497735	0.8878739912390352	1.8089398747834227	0.18125850753277883	0.47912237985844336	0.9485892789841717	0.16189585680113877	0.6452111939379911	1.3883579707541407	0.1630106126915849	0.7581414572226912	1.762686198380464	0.18747428757064738	0.5605498414130093	1.7743118387012267	0.1330904725753202	0.6169187774894742	1.7921003515203848	0.1754611878306679	0.7905716882169218	1.804269074466607	0.28583947513880587	0.3739020733803272	0.43705451289878416	0.2908652440640404	0.28169767097001763	0.19562092094794675	0.2883780930012991	0.19469772974931643	0.3424309772773223	0.44520364505065135	0.36932654927118846	0.4404975450345376	0.6989844427920126	0.4252466726470475	0.435772729078056	0.9366576507032759	0.39070447736855435	0.4207239971112454	1.06783872192907	0.36304450433319563	0.44110661201993406	1.1008339352345717	0.3805166895708728	0.44006110090134837	1.074121890185186	0.4620671388077121	0.44089536281314856	0.11674601071744715	0.3828519597974697	0.45362828020168955	-0.1066355943475354	0.4153348466410673	0.45878640857556097	-0.3399124274279279	0.3710481737030937	0.43267117487996204	-0.4236162821335646	0.36747256469148054	0.4792899758668063	-0.48666445801980884	0.3767371719341663	0.46518099623056386	-0.4736200735767926	0.4440862636157023	0.4596659585097212
171	2.85	0.4139369342410388	0.4620142946652898	0.9439079256502251	0.4102969720944594	0.6414967052539848	1.375339287792413	0.4011088606089119	0.7561570818994638	1.7405281856987136	0.35263973534749277	0.6090800180872596	1.8014124005601504	0.4188883727120892	0.6012536705922815	1.7905936979524912	0.3702301965056862	0.88794849945214	1.8090453191385096	0.18112639091587723	0.47946334193685763	0.949333026640458	0.16192382453376364	0.6452169145934833	1.3882107233100969	0.16289735060347765	0.7582936870211795	1.7626130115906926	0.18743144912659496	0.560694463626489	1.7736892309820405	0.13307375334584	0.616843178639362	1.792146199121171	0.17528060465241696	0.7911315731370276	1.8040578557970097	0.28584255150783805	0.37392886232061634	0.43697145526517384	0.2908549248845978	0.28167666722035306	0.19558335272483005	0.28837689927588844	0.1946936936494527	0.34244389964294186	0.44523203289565216	0.3693778631677531	0.44049692980026506	0.6989975740606768	0.42519127546705326	0.4357926814086781	0.9360283430644162	0.38926631214850105	0.4207070128698733	1.0665048098323857	0.3603406591954252	0.44128553399659726	1.1009798628699343	0.38069095266733016	0.43998919754504007	1.0742873464485707	0.4624894896334648	0.44117742691280354	0.11674767662825113	0.38286251011243444	0.45362866092061477	-0.10639623893100159	0.41729800930092203	0.4586840127244049	-0.3399471880726001	0.37098482096679675	0.4327724510500397	-0.42352544493868355	0.3675132637301358	0.4792419412777203	-0.48669056676745326	0.3754631481397274	0.4641798338036851	-0.4735017804743873	0.44268903865193665	0.4580168418926903
172	2.8666666666666667	0.4139465142491853	0.4620168504756186	0.9439255595759692	0.41030301189983054	0.6415075263861634	1.375370202546893	0.40110906946686475	0.7561524425792818	1.740514285519536	0.3526663893769899	0.6091648017003679	1.8014912051113732	0.4189592854117177	0.6014000019714023	1.7907002091511999	0.3702548792931117	0.8880763671489729	1.8090898790698229	0.18100617280674627	0.4797245824416288	0.9499485578352	0.16194330109892688	0.6451802433267407	1.3882331826616698	0.16271908510064192	0.7586118853099239	1.7624864249762147	0.1876010749869505	0.5600674931751028	1.7729490207167986	0.13305855434974503	0.6167968820947736	1.7921573638043713	0.17518792007103004	0.7914460348008082	1.8040565349520348	0.2858550278776686	0.3738615431596211	0.4368283157390083	0.29083647118168937	0.28166225942024037	0.19556377650887272	0.2883691599110269	0.19468302891925168	0.34245429836054786	0.4452628035333223	0.36940367490825515	0.4404934378179977	0.6990072193870536	0.4251952083925794	0.43580621433165395	0.9345201614176856	0.3872080267369753	0.421122298253678	1.0647848779373348	0.3567686875304644	0.4415811909148536	1.1010734701148706	0.3791659689966775	0.4401789436834336	1.0746262631345038	0.46129948762901407	0.44181497588174473	0.11674814729276187	0.3828682300082855	0.4536281307834229	-0.10627718526409236	0.4180678911908087	0.4586421670083673	-0.3401043313666263	0.37093568382636277	0.43278250157908493	-0.4240127311867894	0.3674645060657087	0.4793416113270344	-0.48682167136500604	0.3747554448835932	0.4639230137609586	-0.4751878134463262	0.44158179175907536	0.4585547540169105
173	2.8833333333333333	0.4139536978894623	0.4620273761036522	0.9439120388009514	0.41030860376967093	0.6415478347089579	1.3754287176132396	0.4011100233105517	0.7561322131874595	1.7404939062586064	0.3526590944351393	0.609257499713984	1.8015123266904203	0.41900940303791806	0.6017815342332183	1.7907401135130954	0.3701944039613353	0.8883259762839597	1.8090575606695616	0.18093369840395587	0.4797473491794574	0.950207434896492	0.1619314511212777	0.6451342932450479	1.3882950875322493	0.1625350953215434	0.7589515395967217	1.7624747648416852	0.18797848603880912	0.558575341038362	1.77314715477318	0.13303299669132734	0.6168660674511061	1.792168239364763	0.1751811152958657	0.7915082059987905	1.8041107822240674	0.28587498892648994	0.3737970548213971	0.43676367123664894	0.29081772653540505	0.28164938816878726	0.1955757317623928	0.28835633350286133	0.19466939727493487	0.3424674107603078	0.44527408057468765	0.36935349445109866	0.44048559286120964	0.6990092715882108	0.4252093113382046	0.435810470153437	0.933196243278161	0.38532579034789016	0.422147456947161	1.0634695455008218	0.35388828276642703	0.44193881321571765	1.1014308017019614	0.375046421952938	0.4405397316699453	1.0751334121868605	0.45704971563051333	0.442642004881418	0.1167475383166191	0.382862778293551	0.4536256055064952	-0.10627538308988485	0.4181819248485519	0.45860784449274605	-0.34022531922096194	0.3709390108745753	0.4327113358292946	-0.4246522885710937	0.36715531708841453	0.47942875330706625	-0.486945343638031	0.3745068250931488	0.46411443225770077	-0.4774436276203652	0.44020938797795817	0.4607195232684061
174	2.9	0.4139588598320437	0.46204306462315936	0.9438632503040536	0.41031005032339446	0.6415941630274358	1.3754873285038587	0.401106147750764	0.7560950529811727	1.7404782206642724	0.35262320828421667	0.6093253439821148	1.8014811496022838	0.41902098875800964	0.6021825480349422	1.7907612988311943	0.3700749254717387	0.888793205327908	1.8090845266981401	0.18097120435114447	0.47946712704844047	0.9497978999449154	0.16189887485018947	0.6451174635843981	1.3883352340469615	0.1623589339169521	0.7592093815743021	1.7629558754834287	0.18853018919524026	0.5564338598274888	1.7740299010739273	0.13300709108954142	0.6170000360815082	1.792191687562286	0.17520297620502856	0.7914492420833833	1.8041516021839072	0.28589378645293073	0.37377297567351525	0.4367635559720658	0.2908107239959035	0.28163960348542794	0.19562532650386802	0.28834251992200854	0.19466464819532867	0.3424845260620636	0.44526495146648565	0.369255216542402	0.44047394244283067	0.6990125935304702	0.425201054607956	0.43581004546336083	0.9326287067077383	0.38436024676861147	0.4234195709325547	1.0629968208286003	0.3525951206067286	0.44220339488970284	1.102403080338017	0.3695760756017492	0.44082014541904474	1.0755679244277063	0.45014587816949725	0.4431383016902515	0.11674418680231925	0.38284696779290583	0.45361632972605304	-0.10637137099037128	0.418262516923706	0.45855442963878335	-0.34026569115227817	0.3710411373146703	0.43261290510413386	-0.4255270734613333	0.366336627428638	0.47949540858611917	-0.4870060057069272	0.37445417107097123	0.46435245280762777	-0.47907708577995206	0.4386501370387355	0.4629814423711207
